<svg xmlns="http://www.w3.org/2000/svg" viewBox="0 0 512 512" role="img" aria-labelledby="title desc">
  <title id="title">BIOMECHASOFT logo</title>
  <desc id="desc">Shield, medical cross, and motion mark for BIOMECHASOFT.</desc>
  <rect width="512" height="512" rx="112" fill="#0f172a"/>
  <path d="M256 64 400 118v108c0 92-58 174-144 222-86-48-144-130-144-222V118l144-54Z" fill="#0f766e"/>
  <path d="M256 103 364 144v82c0 68-41 130-108 170-67-40-108-102-108-170v-82l108-41Z" fill="#14b8a6"/>
  <path d="M234 156h44v72h72v44h-72v72h-44v-72h-72v-44h72v-72Z" fill="#ffffff"/>
  <path d="M151 390c40 35 75 53 105 53s65-18 105-53" fill="none" stroke="#67e8f9" stroke-width="18" stroke-linecap="round"/>
</svg>
